PathFileType	3	(X/Y/Z)	D:\minhoCalibration\240510\subject3_KPNP\preferred\preferred09.trc
DataRate	CameraRate	NumFrames	NumMarkers	Units	OrigDataRate	OrigDataStartFrame	OrigNumFrames
200.0	200.0	21	10	mm	200.0	212	116	
Frame#	Time	Left_Ankle_Outer1			Left_Ankle_Inner1			Left_Knee_Outer1			Left_Knee_Inner1			Left_Wrist1			Right_Wrist1			Right_Knee_Inner1			Right_Knee_Outer1			Right_Ankle_Inner1			Right_Ankle_Outer1			
		X1	Y1	Z1	X2	Y2	Z2	X3	Y3	Z3	X4	Y4	Z4	X5	Y5	Z5	X6	Y6	Z6	X7	Y7	Z7	X8	Y8	Z8	X9	Y9	Z9	X10	Y10	Z10	
212	1.05	-307.29468	113.53301	-517.55078	-363.21185	127.55747	-507.79987	-190.76898	529.14301	-411.12244	-279.79593	537.34924	-364.83713	-145.56303	916.6438	-591.98181	-464.32755	1070.7926	-465.54205	-306.93832	952.46045	-99.416481	-408.66611	1000.9131	-109.19596	-347.43857	772.99207	277.43826	-445.79803	804.82141	276.61829
213	1.055	-306.66122	111.36447	-518.94696	-362.0289	125.63972	-510.20633	-191.46112	527.80109	-413.06818	-280.7438	535.57507	-367.78876	-144.17027	917.39417	-590.50037	-467.64819	1065.0708	-466.73694	-309.00333	946.13403	-99.957825	-411.9855	994.38898	-109.89713	-355.21152	749.2735	267.69641	-453.7666	779.15729	266.47098
214	1.06	-306.12668	109.05244	-520.30536	-361.18527	123.39279	-512.14752	-191.58205	526.59082	-415.06122	-280.77399	533.5697	-370.67569	-143.18283	917.81952	-588.81476	-470.61475	1059.2231	-467.91107	-311.3497	939.52911	-100.40777	-415.41898	987.52478	-110.94145	-362.01907	723.9068	257.88696	-461.53546	753.19434	254.84595
215	1.065	-304.78006	106.75846	-522.17297	-360.2442	121.04836	-514.25745	-191.99826	525.2926	-417.11978	-282.25235	531.94647	-374.36438	-142.07379	918.11975	-587.32294	-473.1033	1053.3806	-469.22589	-313.95862	932.54083	-100.79337	-418.93738	979.8548	-112.29213	-370.74695	700.23724	245.95256	-469.54175	726.93372	241.99907
216	1.07	-303.83401	104.00893	-523.74884	-359.20526	118.38968	-516.53021	-192.3996	523.90558	-419.09995	-284.07129	530.41968	-376.93848	-140.97231	918.0625	-585.94128	-475.07272	1047.5052	-470.54019	-316.8288	925.37262	-101.36279	-422.81006	971.60254	-113.80173	-378.62195	675.47449	232.7399	-477.44852	700.81964	227.8546
217	1.075	-302.51767	101.57834	-525.38934	-358.11102	115.79556	-518.73486	-193.00691	522.30511	-421.04352	-285.53058	528.30975	-380.18881	-140.02628	917.95343	-584.70264	-476.73749	1041.8326	-472.39841	-319.94147	917.85333	-102.00537	-426.94781	963.38165	-115.27763	-394.30618	646.91156	227.41052	-484.71005	673.86902	212.46915
218	1.08	-301.40176	98.969681	-526.76013	-356.9823	113.14916	-521.01453	-193.67024	520.56055	-422.97891	-287.07095	525.83258	-383.68875	-139.41241	917.23792	-583.33649	-478.18292	1036.5715	-474.29568	-323.15036	910.00854	-102.95578	-431.13776	954.11017	-117.11265	-394.21515	625.28613	203.47531	-492.05219	647.82947	195.62097
219	1.085	-300.6113	96.467255	-527.94568	-356.21704	110.52568	-522.99817	-194.3569	518.9256	-424.84299	-288.04822	523.57721	-386.96341	-138.709	916.56281	-582.26813	-479.39297	1031.666	-476.35898	-326.54205	901.75903	-104.07182	-435.53671	944.18652	-119.09345	-401.38501	600.51636	186.82649	-499.97092	622.06128	178.0649
220	1.09	-299.98724	94.062714	-528.85095	-355.69397	108.10551	-524.77612	-195.34979	516.82489	-426.47318	-289.83597	521.25806	-389.68591	-137.97134	915.59839	-581.35181	-480.71124	1027.0579	-478.64236	-330.21838	892.93188	-105.49288	-440.54941	933.99725	-120.85863	-405.50983	578.74646	164.93024	-507.18002	596.52856	158.77705
221	1.095	-299.6629	92.114174	-529.93317	-355.5412	105.78443	-526.30835	-196.36916	514.96875	-427.92221	-291.5155	518.87225	-392.51117	-137.51436	914.43762	-580.47302	-481.87	1022.5468	-480.93478	-333.99698	883.50824	-106.89436	-444.85287	923.0257	-123.24391	-418.13519	551.07294	152.67134	-513.86444	571.83459	138.41853
222	1.1	-300.0177	89.867493	-530.461	-355.8045	103.64277	-527.51489	-197.4622	513.01392	-429.08148	-293.49725	516.6283	-395.29956	-136.99194	913.22693	-579.76025	-483.29446	1018.6896	-483.49277	-337.97275	873.48303	-108.45216	-449.32773	911.60413	-125.67509	-424.91943	527.03845	132.73836	-520.30914	547.61462	117.09249
223	1.105	-300.46674	88.20829	-531.20471	-356.47372	101.67007	-528.54108	-199.07993	511.04861	-430.17114	-295.08713	514.59497	-398.06442	-136.82126	911.66852	-579.04889	-484.71347	1014.921	-485.98984	-342.0986	862.66589	-110.07706	-453.46408	899.69037	-128.33629	-431.18665	503.50952	111.44397	-526.76611	524.40308	95.192764
224	1.11	-301.35782	86.414978	-531.80933	-357.43164	99.435158	-529.11255	-200.36911	509.35214	-430.78448	-297.4133	512.2832	-400.83017	-136.57526	910.19482	-578.39197	-486.14871	1011.3852	-488.59006	-346.36313	851.21521	-111.99122	-457.52652	887.87903	-131.13715	-440.10098	479.45953	91.524651	-532.69586	501.75665	72.004158
225	1.115	-302.36505	85.000473	-532.35614	-358.80551	97.666534	-529.85217	-201.88344	507.78156	-431.52499	-299.37488	511.20026	-402.84659	-136.53265	908.49524	-577.71857	-487.45154	1007.8521	-491.26666	-350.72882	839.14258	-114.31512	-461.60498	875.62402	-134.09776	-439.67957	459.44229	63.241825	-538.0481	480.07129	48.115967
226	1.12	-304.81293	82.761681	-532.37097	-360.39279	95.49366	-530.24274	-203.79553	506.24442	-432.0416	-301.67325	509.76593	-405.08502	-136.4834	906.94171	-577.21124	-488.84857	1004.6691	-494.08331	-354.74289	826.55652	-117.6665	-465.94983	863.7243	-136.41898	-445.5434	437.79205	39.589542	-543.02258	459.37036	23.310482
227	1.125	-305.46066	81.800003	-533.50781	-362.20297	93.645416	-530.77911	-205.7047	505.07217	-432.81845	-303.92026	508.67438	-407.06659	-136.55034	905.22614	-576.53259	-490.04813	1001.2601	-496.92972	-359.22385	813.55591	-120.2598	-469.93069	851.40173	-139.98346	-450.01642	417.46759	13.952106	-547.83527	439.07663	-2.2323792
228	1.13	-307.08386	80.216652	-533.96161	-364.21072	91.721802	-531.20331	-208.04376	503.68063	-433.35107	-306.31796	507.48187	-409.14795	-136.88304	903.64771	-575.80365	-491.28409	997.85107	-499.69101	-363.33926	800.18311	-124.06042	-473.85208	838.90045	-144.08638	-454.93701	397.07739	-11.716412	-551.97095	419.85483	-28.584606
229	1.135	-309.09933	78.151756	-534.4743	-366.10791	89.561653	-531.61182	-210.29247	502.45953	-433.96652	-308.83762	506.29694	-411.28497	-137.46962	901.88806	-574.85327	-492.38568	994.25732	-502.4603	-367.52887	786.46747	-128.47052	-478.41299	826.45239	-148.16353	-458.64203	378.75156	-38.56599	-555.74615	401.46924	-55.674213
230	1.14	-311.06076	76.125313	-534.92206	-368.11749	86.883514	-531.89539	-212.59215	501.26273	-434.75693	-311.10977	505.29355	-413.5408	-138.58603	900.14075	-573.58124	-493.38916	990.41089	-505.14209	-371.78506	772.4433	-133.52904	-482.30621	814.32581	-153.4102	-462.01825	360.62448	-66.08567	-558.64148	384.01303	-83.434868
231	1.145	-312.28662	74.00544	-535.74658	-369.40082	84.563698	-532.63647	-214.74167	500.07587	-435.84357	-313.40109	504.07452	-415.74741	-138.10033	899.00244	-572.94513	-494.42941	986.6499	-507.87164	-376.10056	758.13263	-139.06133	-486.64676	801.91449	-159.04237	-466.17719	343.38416	-92.985504	-561.07648	367.68973	-112.3065
232	1.15	-313.55948	71.534058	-536.3446	-370.64499	81.937996	-533.35736	-216.90129	498.81967	-437.28088	-315.81287	502.99673	-418.08063	-138.47951	897.66901	-571.82672	-495.45987	982.61407	-510.47403	-380.49478	743.60699	-145.24646	-490.48093	790.0957	-165.1084	-467.22809	328.0477	-122.13238	-563.83771	352.45068	-139.74487
